<svg xmlns="http://www.w3.org/2000/svg" width="200" height="200" preserveAspectRatio="xMidYMid meet" version="1.0" viewBox="0 0 150 150"><metadata>Created by potrace 1.14, written by Peter Selinger 2001-2017</metadata><g fill="#000" stroke="none"><path d="M131 1489 c-49 -15 -78 -36 -103 -78 l-23 -36 0 -620 c0 -700 -3 -669 78 -723 l41 -27 620 0 c701 0 670 -3 724 78 l27 41 0 625 0 626 -23 37 c-13 20 -40 47 -60 60 l-37 23 -605 2 c-376 1 -618 -2 -639 -8z m720 -239 c52 -14 100 -49 123 -90 16 -26 21 -57 24 -133 5 -120 -9 -177 -55 -223 l-34 -34 36 -31 c64 -56 70 -77 70 -234 0 -135 -1 -142 -28 -187 -18 -31 -44 -57 -75 -75 -46 -27 -51 -28 -224 -31 l-178 -4 0 526 0 526 153 0 c83 0 168 -5 188 -10z" transform="translate(0.000000,150.000000) scale(0.100000,-0.100000)"/><path d="M680 970 l0 -140 28 0 c15 0 44 5 65 11 46 12 67 52 67 126 0 109 -27 143 -115 143 l-45 0 0 -140z" transform="translate(0.000000,150.000000) scale(0.100000,-0.100000)"/><path d="M680 520 l0 -160 60 0 c52 0 65 4 86 25 25 25 26 29 22 141 -3 108 -5 117 -27 135 -17 14 -39 19 -82 19 l-59 0 0 -160z" transform="translate(0.000000,150.000000) scale(0.100000,-0.100000)"/></g></svg>